<?xml version="1.0" encoding="UTF-8" standalone="no"?>
<!-- Created with Inkscape (http://www.inkscape.org/) -->

<svg
   width="48"
   height="48"
   viewBox="0 0 12.7 12.7"
   version="1.1"
   id="svg1"
   xmlns="http://www.w3.org/2000/svg"
   xmlns:svg="http://www.w3.org/2000/svg">
  <defs
     id="defs1" />
  <g
     id="layer1">
    <path
       style="fill:none;stroke:#ffffff;stroke-width:0.375885;stroke-linecap:round;stroke-linejoin:round;stroke-dasharray:none;stroke-opacity:1"
       d="M 11.519043,4.6200177 9.7397471,4.3410321 m -6.4685303,0.0021 -1.7757466,0.2768877"
       id="path13" />
    <path
       style="fill:none;stroke:#ffffff;stroke-width:0.375885;stroke-linecap:round;stroke-linejoin:round;stroke-dasharray:none;stroke-opacity:1"
       d="M 3.1025572,5.0874928 C 3.1623352,4.9023612 3.2471433,4.7314824 3.3531803,4.5748201 M 5.7207916,3.3211396 c 0.5080698,-0.068723 1.0383423,-0.062522 1.5440166,0.018151 m 2.3574359,1.362168 c 0.076944,0.1297016 0.1398137,0.2681945 0.1866899,0.4154608"
       id="path10" />
    <path
       style="fill:none;stroke:#ffffff;stroke-width:0.375885;stroke-linecap:round;stroke-linejoin:round;stroke-dasharray:none;stroke-opacity:1"
       d="M 1.4954702,4.6200177 6.5045298,6.0770705 11.519043,4.6200177"
       id="path5" />
    <path
       style="fill:none;stroke:#ffffff;stroke-width:0.375885;stroke-linecap:round;stroke-linejoin:round;stroke-dasharray:none;stroke-opacity:1"
       d="M 6.5045298,6.0770705 7.7800033,8.0075171 12.519939,6.4390291 11.519043,4.6200177"
       id="path6" />
    <path
       style="fill:none;stroke:#ffffff;stroke-width:0.375885;stroke-linecap:round;stroke-linejoin:round;stroke-dasharray:none;stroke-opacity:1"
       d="M 1.4954702,4.6200177 0.19610585,6.5079735 5.3324728,8.0592249 6.5045298,6.0770705"
       id="path7" />
    <path
       style="fill:none;stroke:#ffffff;stroke-width:0.375885;stroke-linecap:round;stroke-linejoin:round;stroke-dasharray:none;stroke-opacity:1"
       d="m 6.5045298,6.0770705 0.017234,4.5158655"
       id="path8" />
    <path
       style="fill:none;stroke:#ffffff;stroke-width:0.375885;stroke-linecap:round;stroke-linejoin:round;stroke-dasharray:none;stroke-opacity:1"
       d="M 11.519043,6.7812 V 8.7739249 L 6.5217655,10.592936 1.4954702,8.8003793 1.5000642,6.9017861"
       id="path9" />
    <path
       style="fill:none;stroke:#ffffff;stroke-width:0.375885;stroke-linecap:round;stroke-linejoin:round;stroke-dasharray:none;stroke-opacity:1"
       d="M 3.3531803,4.5748201 C 3.1617691,4.1067404 2.9603855,3.069659 3.2641371,2.1472327 c 1.025288,0.00427 2.0195973,0.6236881 2.4566545,1.1739069"
       id="path11" />
    <path
       style="fill:none;stroke:#ffffff;stroke-width:0.375885;stroke-linecap:round;stroke-linejoin:round;stroke-dasharray:none;stroke-opacity:1"
       d="M 9.6222441,4.7014592 C 9.8136555,4.2333796 10.026322,3.0294902 9.7225671,2.1070639 8.6972801,2.111324 7.7018617,2.7890721 7.2648045,3.3392911"
       id="path11-1" />
  </g>
</svg>
