<?xml version="1.0" encoding="UTF-8" standalone="no"?>
<!-- Created with Inkscape (http://www.inkscape.org/) -->

<svg
   width="3840"
   height="2160"
   viewBox="0 0 3840 2160"
   version="1.1"
   id="svg1"
   xml:space="preserve"
   xmlns="http://www.w3.org/2000/svg"
   xmlns:svg="http://www.w3.org/2000/svg"><defs
     id="defs1" /><g
     id="layer1"
     transform="matrix(173.66525,0,0,173.66525,817.22567,-22.774341)"
     style="opacity:0.05;stroke:#000000;stroke-opacity:1"><path
       style="fill:none;stroke:#000000;stroke-width:0.3;stroke-linecap:round;stroke-linejoin:round;stroke-dasharray:none;stroke-opacity:1"
       d="M 10.469105,4.969269 9.0490151,4.7466053 m -5.1626535,0.00167 -1.4172561,0.2209893"
       id="path13" /><path
       style="fill:none;stroke:#000000;stroke-width:0.3;stroke-linecap:round;stroke-linejoin:round;stroke-dasharray:none;stroke-opacity:1"
       d="m 3.7517512,5.3423695 c 0.04771,-0.147757 0.115397,-0.2841385 0.200027,-0.4091736 M 5.8414126,3.9326103 c 0.4055,-0.054849 0.8287203,-0.049899 1.2323083,0.014487 M 8.9552341,5.034269 c 0.06141,0.1035168 0.111588,0.2140505 0.149001,0.3315865"
       id="path10" /><path
       style="fill:none;stroke:#000000;stroke-width:0.3;stroke-linecap:round;stroke-linejoin:round;stroke-dasharray:none;stroke-opacity:1"
       d="M 2.4691055,4.969269 6.4669285,6.1321698 10.469105,4.969269"
       id="path5" /><path
       style="fill:none;stroke:#000000;stroke-width:0.3;stroke-linecap:round;stroke-linejoin:round;stroke-dasharray:none;stroke-opacity:1"
       d="M 6.4669285,6.1321698 7.4849076,7.6728949 11.267939,6.4210556 10.469105,4.969269"
       id="path6" /><path
       style="fill:none;stroke:#000000;stroke-width:0.3;stroke-linecap:round;stroke-linejoin:round;stroke-dasharray:none;stroke-opacity:1"
       d="M 2.4691055,4.969269 1.4320587,6.4760814 5.5314882,7.7141639 6.4669285,6.1321698"
       id="path7" /><path
       style="fill:none;stroke:#000000;stroke-width:0.3;stroke-linecap:round;stroke-linejoin:round;stroke-dasharray:none;stroke-opacity:1"
       d="m 6.4669285,6.1321698 0.013756,3.6041961"
       id="path8" /><path
       style="fill:none;stroke:#000000;stroke-width:0.3;stroke-linecap:round;stroke-linejoin:round;stroke-dasharray:none;stroke-opacity:1"
       d="M 10.469105,6.6941485 V 8.2845789 L 6.4806848,9.7363659 2.4691055,8.3056929 2.4727755,6.7903905"
       id="path9" /><path
       style="fill:none;stroke:#000000;stroke-width:0.3;stroke-linecap:round;stroke-linejoin:round;stroke-dasharray:none;stroke-opacity:1"
       d="M 3.9517782,4.9331959 C 3.7990094,4.5596128 3.6382814,3.7318989 3.8807113,2.9956935 c 0.8183012,0.0034 1.6118779,0.4977769 1.9607013,0.9369168"
       id="path11" /><path
       style="fill:none;stroke:#000000;stroke-width:0.3;stroke-linecap:round;stroke-linejoin:round;stroke-dasharray:none;stroke-opacity:1"
       d="m 8.9552341,5.034269 c 0.152769,-0.3735831 0.322503,-1.3344295 0.08007,-2.0706349 -0.8183009,0.0034 -1.6127628,0.5443233 -1.9615862,0.9834632"
       id="path11-1" /></g></svg>
